# xmcd
#
# Track frame offsets:
#	150
#	22148
#	45001
#	66281
#	82065
#	100468
#	119811
#	143048
#	169938
#	191106
#	211997
#
# Disc length: 3109 seconds
#
# Revision: 1
# Processed by: cddbd v1.5.1PL0 Copyright (c) Steve Scherf et al.
# Submitted via: audiograbber 1.83.01
#
DISCID=a40c230b
DTITLE=sheila ferguson - new kind of medicine
DYEAR=1900
DGENRE=R&B
TTITLE0=danger
TTITLE1=new kind of medicine
TTITLE2=you've got a friend
TTITLE3=a new sonnet to love (interlude)
TTITLE4=i ain't your fool
TTITLE5=don't think about it
TTITLE6=one more try
TTITLE7=please don't take... (interlude)
TTITLE8=love you can't deny
TTITLE9=feeling
TTITLE10=after the love has lost it's shine
EXTD=
EXTT0=
EXTT1=
EXTT2=
EXTT3=
EXTT4=
EXTT5=
EXTT6=
EXTT7=
EXTT8=
EXTT9=
EXTT10=
PLAYORDER=
